<svg xmlns="http://www.w3.org/2000/svg" xmlns:xlink="http://www.w3.org/1999/xlink" xmlns:lucid="lucid" width="1241.5" height="1118"><g transform="translate(1301.5 921)" lucid:page-tab-id="0_0"><path d="M-754.88-910a10 10 0 0 1 10-10h179.5a10 10 0 0 1 10 10v276a10 10 0 0 1-10 10h-179.5a10 10 0 0 1-10-10z" fill="#d7faf5"/><path d="M-754.88-910a10 10 0 0 1 10-10h179.5a10 10 0 0 1 10 10v30h-199.5z" fill="#c3f7c8"/><path d="M-754.88-880h199.5v33h-199.5z" fill="#d7faf5"/><path d="M-754.88-848h199.5v33h-199.5z" fill="#e3fae3"/><path d="M-754.88-816h199.5v33h-199.5z" fill="#d7faf5"/><path d="M-754.88-784h199.5v33h-199.5z" fill="#e3fae3"/><path d="M-754.88-752h199.5v33h-199.5z" fill="#d7faf5"/><path d="M-754.88-720h199.5v33h-199.5z" fill="#e3fae3"/><path d="M-754.88-688h199.5v33h-199.5z" fill="#d7faf5"/><path d="M-754.88-656h199.5v22a10 10 0 0 1-10 10h-179.5a10 10 0 0 1-10-10z" fill="#e3fae3"/><path d="M-753.88-880h197.5-197.5zM-754.88-910a10 10 0 0 1 10-10h179.5a10 10 0 0 1 10 10v276a10 10 0 0 1-10 10h-179.5a10 10 0 0 1-10-10z" stroke="#00c2a8" stroke-width="2" fill="none"/><use xlink:href="#a" transform="matrix(1,0,0,1,-744.8750109210526,-920) translate(53.55 23.6)"/><use xlink:href="#b" transform="matrix(1,0,0,1,-749.8750109210526,-877.5) translate(0 17.1)"/><use xlink:href="#c" transform="matrix(1,0,0,1,-749.8750109210526,-877.5) translate(53.85 17.1)"/><use xlink:href="#d" transform="matrix(1,0,0,1,-749.8750109210526,-845.5) translate(0 17.1)"/><use xlink:href="#e" transform="matrix(1,0,0,1,-749.8750109210526,-845.5) translate(72.95 17.1)"/><use xlink:href="#f" transform="matrix(1,0,0,1,-749.8750109210526,-813.5) translate(0 17.1)"/><use xlink:href="#e" transform="matrix(1,0,0,1,-749.8750109210526,-813.5) translate(88.85000000000001 17.1)"/><use xlink:href="#g" transform="matrix(1,0,0,1,-749.8750109210526,-781.5) translate(0 17.1)"/><use xlink:href="#h" transform="matrix(1,0,0,1,-749.8750109210526,-749.5) translate(0 17.1)"/><use xlink:href="#i" transform="matrix(1,0,0,1,-749.8750109210526,-717.5) translate(0 17.1)"/><use xlink:href="#j" transform="matrix(1,0,0,1,-749.8750109210526,-685.5) translate(0 17.1)"/><use xlink:href="#k" transform="matrix(1,0,0,1,-749.8750109210526,-653.5) translate(0 17.1)"/><path d="M-775.38-552a10 10 0 0 1 10-10h200a10 10 0 0 1 10 10v180a10 10 0 0 1-10 10h-200a10 10 0 0 1-10-10z" fill="#d7faf5"/><path d="M-775.38-552a10 10 0 0 1 10-10h200a10 10 0 0 1 10 10v30h-220z" fill="#c3f7c8"/><path d="M-775.38-522h220v33h-220z" fill="#d7faf5"/><path d="M-775.38-490h220v33h-220z" fill="#e3fae3"/><path d="M-775.38-458h220v33h-220z" fill="#d7faf5"/><path d="M-775.38-426h220v33h-220z" fill="#e3fae3"/><path d="M-775.38-394h220v22a10 10 0 0 1-10 10h-200a10 10 0 0 1-10-10z" fill="#d7faf5"/><path d="M-774.38-522h218-218zM-775.38-552a10 10 0 0 1 10-10h200a10 10 0 0 1 10 10v180a10 10 0 0 1-10 10h-200a10 10 0 0 1-10-10z" stroke="#00c2a8" stroke-width="2" fill="none"/><use xlink:href="#l" transform="matrix(1,0,0,1,-765.374967236842,-562) translate(-3.3999999999999773 23.6)"/><use xlink:href="#m" transform="matrix(1,0,0,1,-770.374967236842,-519.5) translate(0 17.1)"/><use xlink:href="#e" transform="matrix(1,0,0,1,-770.374967236842,-519.5) translate(87.9 17.1)"/><use xlink:href="#f" transform="matrix(1,0,0,1,-770.374967236842,-487.5) translate(0 17.1)"/><use xlink:href="#e" transform="matrix(1,0,0,1,-770.374967236842,-487.5) translate(88.85000000000001 17.1)"/><use xlink:href="#n" transform="matrix(1,0,0,1,-770.374967236842,-455.5) translate(0 17.1)"/><use xlink:href="#o" transform="matrix(1,0,0,1,-770.374967236842,-423.5) translate(0 17.1)"/><use xlink:href="#p" transform="matrix(1,0,0,1,-770.374967236842,-391.5) translate(0 17.1)"/><path d="M-790.25-132a10 10 0 0 1 10-10h229.75a10 10 0 0 1 10 10V16a10 10 0 0 1-10 10h-229.75a10 10 0 0 1-10-10z" fill="#d7faf5"/><path d="M-790.25-132a10 10 0 0 1 10-10h229.75a10 10 0 0 1 10 10v30h-249.75z" fill="#c3f7c8"/><path d="M-790.25-102h249.75v33h-249.75z" fill="#d7faf5"/><path d="M-790.25-70h249.75v33h-249.75z" fill="#e3fae3"/><path d="M-790.25-38h249.75v33h-249.75z" fill="#d7faf5"/><path d="M-790.25-6h249.75v22a10 10 0 0 1-10 10h-229.75a10 10 0 0 1-10-10z" fill="#e3fae3"/><path d="M-789.25-102h247.75-247.75zM-790.25-132a10 10 0 0 1 10-10h229.75a10 10 0 0 1 10 10V16a10 10 0 0 1-10 10h-229.75a10 10 0 0 1-10-10z" stroke="#00c2a8" stroke-width="2" fill="none"/><use xlink:href="#q" transform="matrix(1,0,0,1,-780.2499781578947,-142) translate(4.175000000000011 23.6)"/><use xlink:href="#m" transform="matrix(1,0,0,1,-785.2499781578947,-99.5) translate(0 17.1)"/><use xlink:href="#e" transform="matrix(1,0,0,1,-785.2499781578947,-99.5) translate(87.9 17.1)"/><use xlink:href="#r" transform="matrix(1,0,0,1,-785.2499781578947,-67.5) translate(0 17.1)"/><use xlink:href="#s" transform="matrix(1,0,0,1,-785.2499781578947,-35.5) translate(0 17.1)"/><use xlink:href="#t" transform="matrix(1,0,0,1,-785.2499781578947,-3.5) translate(0 17.1)"/><path d="M-790.25-310a10 10 0 0 1 10-10h229.75a10 10 0 0 1 10 10v116a10 10 0 0 1-10 10h-229.75a10 10 0 0 1-10-10z" fill="#d7faf5"/><path d="M-790.25-310a10 10 0 0 1 10-10h229.75a10 10 0 0 1 10 10v30h-249.75z" fill="#c3f7c8"/><path d="M-790.25-280h249.75v33h-249.75z" fill="#d7faf5"/><path d="M-790.25-248h249.75v33h-249.75z" fill="#e3fae3"/><path d="M-790.25-216h249.75v22a10 10 0 0 1-10 10h-229.75a10 10 0 0 1-10-10z" fill="#d7faf5"/><path d="M-789.25-280h247.75-247.75zM-790.25-310a10 10 0 0 1 10-10h229.75a10 10 0 0 1 10 10v116a10 10 0 0 1-10 10h-229.75a10 10 0 0 1-10-10z" stroke="#00c2a8" stroke-width="2" fill="none"/><use xlink:href="#u" transform="matrix(1,0,0,1,-780.2499781578947,-320) translate(14.125000000000014 23.6)"/><use xlink:href="#m" transform="matrix(1,0,0,1,-785.2499781578947,-277.5) translate(0 17.1)"/><use xlink:href="#e" transform="matrix(1,0,0,1,-785.2499781578947,-277.5) translate(87.9 17.1)"/><use xlink:href="#r" transform="matrix(1,0,0,1,-785.2499781578947,-245.5) translate(0 17.1)"/><use xlink:href="#v" transform="matrix(1,0,0,1,-785.2499781578947,-213.5) translate(0 17.1)"/><path d="M-835.38 70a10 10 0 0 1 10-10h320a10 10 0 0 1 10 10v116a10 10 0 0 1-10 10h-320a10 10 0 0 1-10-10z" fill="#d7faf5"/><path d="M-835.38 70a10 10 0 0 1 10-10h320a10 10 0 0 1 10 10v30h-340z" fill="#c3f7c8"/><path d="M-835.38 100h340v33h-340z" fill="#d7faf5"/><path d="M-835.38 132h340v33h-340z" fill="#e3fae3"/><path d="M-835.38 164h340v22a10 10 0 0 1-10 10h-320a10 10 0 0 1-10-10z" fill="#d7faf5"/><path d="M-834.38 100h338-338zM-835.38 70a10 10 0 0 1 10-10h320a10 10 0 0 1 10 10v116a10 10 0 0 1-10 10h-320a10 10 0 0 1-10-10z" stroke="#00c2a8" stroke-width="2" fill="none"/><use xlink:href="#w" transform="matrix(1,0,0,1,-825.374967236842,60) translate(8.125000000000028 23.6)"/><use xlink:href="#m" transform="matrix(1,0,0,1,-830.374967236842,102.5) translate(0 17.1)"/><use xlink:href="#e" transform="matrix(1,0,0,1,-830.374967236842,102.5) translate(87.9 17.1)"/><use xlink:href="#r" transform="matrix(1,0,0,1,-830.374967236842,134.5) translate(0 17.1)"/><use xlink:href="#x" transform="matrix(1,0,0,1,-830.374967236842,166.5) translate(0 17.1)"/><path d="M-1260-430a10 10 0 0 1 10-10h229.75a10 10 0 0 1 10 10v116a10 10 0 0 1-10 10H-1250a10 10 0 0 1-10-10z" fill="#d7faf5"/><path d="M-1260-430a10 10 0 0 1 10-10h229.75a10 10 0 0 1 10 10v30H-1260z" fill="#ffd9d9"/><path d="M-1260-400h249.75v33H-1260z" fill="#d7faf5"/><path d="M-1260-368h249.75v33H-1260z" fill="#fff0f0"/><path d="M-1260-336h249.75v22a10 10 0 0 1-10 10H-1250a10 10 0 0 1-10-10z" fill="#d7faf5"/><path d="M-1259-400h247.75H-1259zM-1260-430a10 10 0 0 1 10-10h229.75a10 10 0 0 1 10 10v116a10 10 0 0 1-10 10H-1250a10 10 0 0 1-10-10z" stroke="#00c2a8" stroke-width="2" fill="none"/><use xlink:href="#y" transform="matrix(1,0,0,1,-1250,-440) translate(82.075 23.6)"/><use xlink:href="#z" transform="matrix(1,0,0,1,-1255,-397.5) translate(0 17.1)"/><use xlink:href="#A" transform="matrix(1,0,0,1,-1255,-397.5) translate(55.900000000000006 17.1)"/><use xlink:href="#B" transform="matrix(1,0,0,1,-1255,-365.5) translate(0 17.1)"/><use xlink:href="#C" transform="matrix(1,0,0,1,-1255,-333.5) translate(0 17.1)"/><path d="M-420-910a10 10 0 0 1 10-10h229.75a10 10 0 0 1 10 10v308a10 10 0 0 1-10 10H-410a10 10 0 0 1-10-10z" fill="#d7faf5"/><path d="M-420-910a10 10 0 0 1 10-10h229.75a10 10 0 0 1 10 10v30H-420z" fill="#ffd9d9"/><path d="M-420-880h249.75v33H-420z" fill="#d7faf5"/><path d="M-420-848h249.75v33H-420z" fill="#fff0f0"/><path d="M-420-816h249.75v33H-420z" fill="#d7faf5"/><path d="M-420-784h249.75v33H-420z" fill="#fff0f0"/><path d="M-420-752h249.75v33H-420z" fill="#d7faf5"/><path d="M-420-720h249.75v33H-420z" fill="#fff0f0"/><path d="M-420-688h249.75v33H-420z" fill="#d7faf5"/><path d="M-420-656h249.75v33H-420z" fill="#fff0f0"/><path d="M-420-624h249.75v22a10 10 0 0 1-10 10H-410a10 10 0 0 1-10-10z" fill="#d7faf5"/><path d="M-419-880h247.75H-419zM-420-910a10 10 0 0 1 10-10h229.75a10 10 0 0 1 10 10v308a10 10 0 0 1-10 10H-410a10 10 0 0 1-10-10z" stroke="#00c2a8" stroke-width="2" fill="none"/><use xlink:href="#D" transform="matrix(1,0,0,1,-410,-920) translate(78.05 23.6)"/><use xlink:href="#E" transform="matrix(1,0,0,1,-415,-877.5) translate(0 17.1)"/><use xlink:href="#A" transform="matrix(1,0,0,1,-415,-877.5) translate(74 17.1)"/><use xlink:href="#F" transform="matrix(1,0,0,1,-415,-845.5) translate(0 17.1)"/><use xlink:href="#m" transform="matrix(1,0,0,1,-415,-813.5) translate(0 17.1)"/><use xlink:href="#e" transform="matrix(1,0,0,1,-415,-813.5) translate(87.9 17.1)"/><use xlink:href="#G" transform="matrix(1,0,0,1,-415,-781.5) translate(0 17.1)"/><use xlink:href="#H" transform="matrix(1,0,0,1,-415,-749.5) translate(0 17.1)"/><use xlink:href="#I" transform="matrix(1,0,0,1,-415,-717.5) translate(0 17.1)"/><use xlink:href="#J" transform="matrix(1,0,0,1,-415,-685.5) translate(0 17.1)"/><use xlink:href="#K" transform="matrix(1,0,0,1,-415,-653.5) translate(0 17.1)"/><use xlink:href="#L" transform="matrix(1,0,0,1,-415,-621.5) translate(0 17.1)"/><path d="M-420-430a10 10 0 0 1 10-10h229.75a10 10 0 0 1 10 10v244a10 10 0 0 1-10 10H-410a10 10 0 0 1-10-10z" fill="#d7faf5"/><path d="M-420-430a10 10 0 0 1 10-10h229.75a10 10 0 0 1 10 10v30H-420z" fill="#ffd9d9"/><path d="M-420-400h249.75v33H-420z" fill="#d7faf5"/><path d="M-420-368h249.75v33H-420z" fill="#fff0f0"/><path d="M-420-336h249.75v33H-420z" fill="#d7faf5"/><path d="M-420-304h249.75v33H-420z" fill="#fff0f0"/><path d="M-420-272h249.75v33H-420z" fill="#d7faf5"/><path d="M-420-240h249.75v33H-420z" fill="#fff0f0"/><path d="M-420-208h249.75v22a10 10 0 0 1-10 10H-410a10 10 0 0 1-10-10z" fill="#d7faf5"/><path d="M-419-400h247.75H-419zM-420-430a10 10 0 0 1 10-10h229.75a10 10 0 0 1 10 10v244a10 10 0 0 1-10 10H-410a10 10 0 0 1-10-10z" stroke="#00c2a8" stroke-width="2" fill="none"/><use xlink:href="#M" transform="matrix(1,0,0,1,-410.00004384210524,-440) translate(70.575 23.6)"/><use xlink:href="#N" transform="matrix(1,0,0,1,-415.00004384210524,-397.5) translate(0 17.1)"/><use xlink:href="#A" transform="matrix(1,0,0,1,-415.00004384210524,-397.5) translate(88.95 17.1)"/><use xlink:href="#O" transform="matrix(1,0,0,1,-415.00004384210524,-365.5) translate(0 17.1)"/><use xlink:href="#P" transform="matrix(1,0,0,1,-415.00004384210524,-333.5) translate(0 17.1)"/><use xlink:href="#Q" transform="matrix(1,0,0,1,-415.00004384210524,-301.5) translate(0 17.1)"/><use xlink:href="#R" transform="matrix(1,0,0,1,-415.00004384210524,-269.5) translate(0 17.1)"/><use xlink:href="#S" transform="matrix(1,0,0,1,-415.00004384210524,-237.5) translate(0 17.1)"/><use xlink:href="#T" transform="matrix(1,0,0,1,-415.00004384210524,-205.5) translate(0 17.1)"/><path d="M-989.25-384.1H-946a6 6 0 0 0 6-6v-196.1a6 6 0 0 1 6-6h45.44a6 6 0 0 0 6-6v-196.08a6 6 0 0 1 6-6h101.27M-1009.25-384.1h20m0 10v-20M-756.1-800.28h-20m20-10l-20 10m20 10l-20-10M-441-864h-40.7a6 6 0 0 0-6 6v19.4a6 6 0 0 1-6 6h-41.26M-421-864h-20m0-10v20M-554.15-832.6h20m-20 10l20-10m-20-10l20 10M-441-384h-14a6 6 0 0 1-6-6v-84a6 6 0 0 0-6-6h-41.38a6 6 0 0 1-6-6v-14.4a6 6 0 0 0-6-6h-14.58M-421-384h-20m0-10v20M-554.15-506.4h20m-20 10l20-10m-20-10l20 10M-149.25-384h82.75a6 6 0 0 1 6 6v487.93a6 6 0 0 1-6 6h-408.46M-169.25-384h20m0 10v-20M-494.15 115.93h20m-20 10l20-10m-20-10l20 10" stroke="#6db1ff" fill="none"/><path d="M-989.25-384.1h90.44a6 6 0 0 0 6-6v-78a6 6 0 0 1 6-6h91M-1009.25-384.1h20m0 10v-20M-776.6-474.1h-20m20-10l-20 10m20 10l-20-10M-989.25-384.1H-966a6 6 0 0 1 6 6v140.26a6 6 0 0 0 6 6h143.34M-1009.25-384.1h20m0 10v-20M-791.47-231.84h-20m20-10l-20 10m20 10l-20-10" stroke="#6db1ff" fill="none"/><path d="M-989.25-384.1H-966a6 6 0 0 1 6 6v153.07a6 6 0 0 1-6 6h-28a6 6 0 0 0-6 6v153.06a6 6 0 0 0 6 6h183.34M-1009.25-384.1h20m0 10v-20M-791.47-53.97h-20m20-10l-20 10m20 10l-20-10M-1281-384.1h-14a6 6 0 0 0-6 6v520.22a6 6 0 0 0 6 6h439.2M-1261-384.1h-20m0-10v20M-836.6 148.12h-20m20-10l-20 10m20 10l-20-10M-149.25-384h14a6 6 0 0 0 6-6v-404a6 6 0 0 0-6-6h-14.6M-169.25-384h20m0 10v-20M-169.03-800h20m-20 10l20-10m-20-10l20 10M-441-384h-33.25a6 6 0 0 0-6 6v107.9a6 6 0 0 1-6 6h-33.84M-421-384h-20m0-10v20M-539.28-264.1h20m-20 10l20-10m-20-10l20 10" stroke="#6db1ff" fill="none"/><path d="M-441-384h-13.5a6 6 0 0 0-6 6v285.78a6 6 0 0 1-6 6h-53.6M-421-384h-20m0-10v20M-539.28-86.22h20m-20 10l20-10m-20-10l20 10" stroke="#6db1ff" fill="none"/><defs><path fill="#3a414a" d="M101-234c-31-9-42 10-38 44h38v23H63V0H32v-167H5v-23h27c-7-52 17-82 69-68v24" id="U"/><path fill="#3a414a" d="M141-36C126-15 110 5 73 4 37 3 15-17 15-53c-1-64 63-63 125-63 3-35-9-54-41-54-24 1-41 7-42 31l-33-3c5-37 33-52 76-52 45 0 72 20 72 64v82c-1 20 7 32 28 27v20c-31 9-61-2-59-35zM48-53c0 20 12 33 32 33 41-3 63-29 60-74-43 2-92-5-92 41" id="V"/><path fill="#3a414a" d="M96-169c-40 0-48 33-48 73s9 75 48 75c24 0 41-14 43-38l32 2c-6 37-31 61-74 61-59 0-76-41-82-99-10-93 101-131 147-64 4 7 5 14 7 22l-32 3c-4-21-16-35-41-35" id="W"/><path fill="#3a414a" d="M59-47c-2 24 18 29 38 22v24C64 9 27 4 27-40v-127H5v-23h24l9-43h21v43h35v23H59v120" id="X"/><path fill="#3a414a" d="M-5 72V49h209v23H-5" id="Y"/><path fill="#3a414a" d="M114-163C36-179 61-72 57 0H25l-1-190h30c1 12-1 29 2 39 6-27 23-49 58-41v29" id="Z"/><path fill="#3a414a" d="M24-231v-30h32v30H24zM24 0v-190h32V0H24" id="aa"/><path fill="#3a414a" d="M115-194c55 1 70 41 70 98S169 2 115 4C84 4 66-9 55-30l1 105H24l-1-265h31l2 30c10-21 28-34 59-34zm-8 174c40 0 45-34 45-75s-6-73-45-74c-42 0-51 32-51 76 0 43 10 73 51 73" id="ab"/><path fill="#3a414a" d="M135-143c-3-34-86-38-87 0 15 53 115 12 119 90S17 21 10-45l28-5c4 36 97 45 98 0-10-56-113-15-118-90-4-57 82-63 122-42 12 7 21 19 24 35" id="ac"/><g id="a"><use transform="matrix(0.05,0,0,0.05,0,0)" xlink:href="#U"/><use transform="matrix(0.05,0,0,0.05,5,0)" xlink:href="#V"/><use transform="matrix(0.05,0,0,0.05,15,0)" xlink:href="#W"/><use transform="matrix(0.05,0,0,0.05,24,0)" xlink:href="#X"/><use transform="matrix(0.05,0,0,0.05,29,0)" xlink:href="#Y"/><use transform="matrix(0.05,0,0,0.05,39,0)" xlink:href="#X"/><use transform="matrix(0.05,0,0,0.05,44,0)" xlink:href="#Z"/><use transform="matrix(0.05,0,0,0.05,49.95,0)" xlink:href="#aa"/><use transform="matrix(0.05,0,0,0.05,53.900000000000006,0)" xlink:href="#ab"/><use transform="matrix(0.05,0,0,0.05,63.900000000000006,0)" xlink:href="#ac"/></g><path fill="#3a414a" d="M85-194c31 0 48 13 60 33l-1-100h32l1 261h-30c-2-10 0-23-3-31C134-8 116 4 85 4 32 4 16-35 15-94c0-66 23-100 70-100zm9 24c-40 0-46 34-46 75 0 40 6 74 45 74 42 0 51-32 51-76 0-42-9-74-50-73" id="ad"/><g id="b"><use transform="matrix(0.05,0,0,0.05,0,0)" xlink:href="#X"/><use transform="matrix(0.05,0,0,0.05,5,0)" xlink:href="#Z"/><use transform="matrix(0.05,0,0,0.05,10.95,0)" xlink:href="#aa"/><use transform="matrix(0.05,0,0,0.05,14.899999999999999,0)" xlink:href="#ab"/><use transform="matrix(0.05,0,0,0.05,24.9,0)" xlink:href="#Y"/><use transform="matrix(0.05,0,0,0.05,34.9,0)" xlink:href="#aa"/><use transform="matrix(0.05,0,0,0.05,38.85,0)" xlink:href="#ad"/></g><path fill="#3a414a" d="M87 75C49 33 22-17 22-94c0-76 28-126 65-167h31c-38 41-64 92-64 168S80 34 118 75H87" id="ae"/><path fill="#3a414a" d="M190 0L58-211 59 0H30v-248h39L202-35l-2-213h31V0h-41" id="af"/><path fill="#3a414a" d="M194 0L95-120 63-95V0H30v-248h33v124l119-124h40L117-140 236 0h-42" id="ag"/><path fill="#3a414a" d="M0 4l72-265h28L28 4H0" id="ah"/><path fill="#3a414a" d="M30-248c87 1 191-15 191 75 0 78-77 80-158 76V0H30v-248zm33 125c57 0 124 11 124-50 0-59-68-47-124-48v98" id="ai"/><path fill="#3a414a" d="M33-261c38 41 65 92 65 168S71 34 33 75H2C39 34 66-17 66-93S39-220 2-261h31" id="aj"/><g id="c"><use transform="matrix(0.05,0,0,0.05,0,0)" xlink:href="#ae"/><use transform="matrix(0.05,0,0,0.05,5.95,0)" xlink:href="#af"/><use transform="matrix(0.05,0,0,0.05,18.900000000000002,0)" xlink:href="#ag"/><use transform="matrix(0.05,0,0,0.05,30.900000000000002,0)" xlink:href="#ah"/><use transform="matrix(0.05,0,0,0.05,35.900000000000006,0)" xlink:href="#ai"/><use transform="matrix(0.05,0,0,0.05,47.900000000000006,0)" xlink:href="#ag"/><use transform="matrix(0.05,0,0,0.05,59.900000000000006,0)" xlink:href="#aj"/></g><path fill="#3a414a" d="M100-194c63 0 86 42 84 106H49c0 40 14 67 53 68 26 1 43-12 49-29l28 8c-11 28-37 45-77 45C44 4 14-33 15-96c1-61 26-98 85-98zm52 81c6-60-76-77-97-28-3 7-6 17-6 28h103" id="ak"/><path fill="#3a414a" d="M63-220v92h138v28H63V0H30v-248h175v28H63" id="al"/><g id="d"><use transform="matrix(0.05,0,0,0.05,0,0)" xlink:href="#ad"/><use transform="matrix(0.05,0,0,0.05,10,0)" xlink:href="#V"/><use transform="matrix(0.05,0,0,0.05,20,0)" xlink:href="#X"/><use transform="matrix(0.05,0,0,0.05,25,0)" xlink:href="#ak"/><use transform="matrix(0.05,0,0,0.05,35,0)" xlink:href="#Y"/><use transform="matrix(0.05,0,0,0.05,45,0)" xlink:href="#al"/><use transform="matrix(0.05,0,0,0.05,55.95,0)" xlink:href="#ag"/></g><g id="e"><use transform="matrix(0.05,0,0,0.05,0,0)" xlink:href="#ae"/><use transform="matrix(0.05,0,0,0.05,5.95,0)" xlink:href="#al"/><use transform="matrix(0.05,0,0,0.05,16.900000000000002,0)" xlink:href="#ag"/><use transform="matrix(0.05,0,0,0.05,28.900000000000002,0)" xlink:href="#aj"/></g><path fill="#3a414a" d="M179-190L93 31C79 59 56 82 12 73V49c39 6 53-20 64-50L1-190h34L92-34l54-156h33" id="am"/><g id="f"><use transform="matrix(0.05,0,0,0.05,0,0)" xlink:href="#W"/><use transform="matrix(0.05,0,0,0.05,9,0)" xlink:href="#aa"/><use transform="matrix(0.05,0,0,0.05,12.949999999999998,0)" xlink:href="#X"/><use transform="matrix(0.05,0,0,0.05,17.95,0)" xlink:href="#am"/><use transform="matrix(0.05,0,0,0.05,26.950000000000003,0)" xlink:href="#Y"/><use transform="matrix(0.05,0,0,0.05,36.95,0)" xlink:href="#aa"/><use transform="matrix(0.05,0,0,0.05,40.900000000000006,0)" xlink:href="#ad"/><use transform="matrix(0.05,0,0,0.05,50.900000000000006,0)" xlink:href="#Y"/><use transform="matrix(0.05,0,0,0.05,60.900000000000006,0)" xlink:href="#al"/><use transform="matrix(0.05,0,0,0.05,71.85000000000001,0)" xlink:href="#ag"/></g><path fill="#3a414a" d="M117-194c89-4 53 116 60 194h-32v-121c0-31-8-49-39-48C34-167 62-67 57 0H25l-1-190h30c1 10-1 24 2 32 11-22 29-35 61-36" id="an"/><path fill="#3a414a" d="M177-190C167-65 218 103 67 71c-23-6-38-20-44-43l32-5c15 47 100 32 89-28v-30C133-14 115 1 83 1 29 1 15-40 15-95c0-56 16-97 71-98 29-1 48 16 59 35 1-10 0-23 2-32h30zM94-22c36 0 50-32 50-73 0-42-14-75-50-75-39 0-46 34-46 75s6 73 46 73" id="ao"/><g id="g"><use transform="matrix(0.05,0,0,0.05,0,0)" xlink:href="#ab"/><use transform="matrix(0.05,0,0,0.05,10,0)" xlink:href="#V"/><use transform="matrix(0.05,0,0,0.05,20,0)" xlink:href="#ac"/><use transform="matrix(0.05,0,0,0.05,29,0)" xlink:href="#ac"/><use transform="matrix(0.05,0,0,0.05,38,0)" xlink:href="#ak"/><use transform="matrix(0.05,0,0,0.05,48,0)" xlink:href="#an"/><use transform="matrix(0.05,0,0,0.05,58,0)" xlink:href="#ao"/><use transform="matrix(0.05,0,0,0.05,68,0)" xlink:href="#ak"/><use transform="matrix(0.05,0,0,0.05,78,0)" xlink:href="#Z"/><use transform="matrix(0.05,0,0,0.05,83.95,0)" xlink:href="#Y"/><use transform="matrix(0.05,0,0,0.05,93.95,0)" xlink:href="#X"/><use transform="matrix(0.05,0,0,0.05,98.95,0)" xlink:href="#am"/><use transform="matrix(0.05,0,0,0.05,107.95,0)" xlink:href="#ab"/><use transform="matrix(0.05,0,0,0.05,117.95,0)" xlink:href="#ak"/></g><path fill="#3a414a" d="M108 0H70L1-190h34L89-25l56-165h34" id="ap"/><path fill="#3a414a" d="M24 0v-261h32V0H24" id="aq"/><path fill="#3a414a" d="M143 0L79-87 56-68V0H24v-261h32v163l83-92h37l-77 82L181 0h-38" id="ar"/><path fill="#3a414a" d="M210-169c-67 3-38 105-44 169h-31v-121c0-29-5-50-35-48C34-165 62-65 56 0H25l-1-190h30c1 10-1 24 2 32 10-44 99-50 107 0 11-21 27-35 58-36 85-2 47 119 55 194h-31v-121c0-29-5-49-35-48" id="as"/><g id="h"><use transform="matrix(0.05,0,0,0.05,0,0)" xlink:href="#ad"/><use transform="matrix(0.05,0,0,0.05,10,0)" xlink:href="#aa"/><use transform="matrix(0.05,0,0,0.05,13.949999999999998,0)" xlink:href="#ac"/><use transform="matrix(0.05,0,0,0.05,22.95,0)" xlink:href="#X"/><use transform="matrix(0.05,0,0,0.05,27.950000000000003,0)" xlink:href="#V"/><use transform="matrix(0.05,0,0,0.05,37.95,0)" xlink:href="#an"/><use transform="matrix(0.05,0,0,0.05,47.95,0)" xlink:href="#W"/><use transform="matrix(0.05,0,0,0.05,56.95,0)" xlink:href="#ak"/><use transform="matrix(0.05,0,0,0.05,66.95,0)" xlink:href="#Y"/><use transform="matrix(0.05,0,0,0.05,76.95,0)" xlink:href="#X"/><use transform="matrix(0.05,0,0,0.05,81.95,0)" xlink:href="#Z"/><use transform="matrix(0.05,0,0,0.05,87.9,0)" xlink:href="#V"/><use transform="matrix(0.05,0,0,0.05,97.9,0)" xlink:href="#ap"/><use transform="matrix(0.05,0,0,0.05,106.9,0)" xlink:href="#ak"/><use transform="matrix(0.05,0,0,0.05,116.9,0)" xlink:href="#aq"/><use transform="matrix(0.05,0,0,0.05,120.85000000000001,0)" xlink:href="#aq"/><use transform="matrix(0.05,0,0,0.05,124.80000000000001,0)" xlink:href="#ak"/><use transform="matrix(0.05,0,0,0.05,134.8,0)" xlink:href="#ad"/><use transform="matrix(0.05,0,0,0.05,144.8,0)" xlink:href="#ae"/><use transform="matrix(0.05,0,0,0.05,150.75,0)" xlink:href="#ar"/><use transform="matrix(0.05,0,0,0.05,159.75,0)" xlink:href="#as"/><use transform="matrix(0.05,0,0,0.05,174.7,0)" xlink:href="#aj"/></g><path fill="#3a414a" d="M100-194c62-1 85 37 85 99 1 63-27 99-86 99S16-35 15-95c0-66 28-99 85-99zM99-20c44 1 53-31 53-75 0-43-8-75-51-75s-53 32-53 75 10 74 51 75" id="at"/><path fill="#3a414a" d="M84 4C-5 8 30-112 23-190h32v120c0 31 7 50 39 49 72-2 45-101 50-169h31l1 190h-30c-1-10 1-25-2-33-11 22-28 36-60 37" id="au"/><g id="i"><use transform="matrix(0.05,0,0,0.05,0,0)" xlink:href="#U"/><use transform="matrix(0.05,0,0,0.05,5,0)" xlink:href="#V"/><use transform="matrix(0.05,0,0,0.05,15,0)" xlink:href="#Z"/><use transform="matrix(0.05,0,0,0.05,20.95,0)" xlink:href="#ak"/><use transform="matrix(0.05,0,0,0.05,30.950000000000003,0)" xlink:href="#Y"/><use transform="matrix(0.05,0,0,0.05,40.95,0)" xlink:href="#V"/><use transform="matrix(0.05,0,0,0.05,50.95,0)" xlink:href="#as"/><use transform="matrix(0.05,0,0,0.05,65.9,0)" xlink:href="#at"/><use transform="matrix(0.05,0,0,0.05,75.9,0)" xlink:href="#au"/><use transform="matrix(0.05,0,0,0.05,85.9,0)" xlink:href="#an"/><use transform="matrix(0.05,0,0,0.05,95.9,0)" xlink:href="#X"/></g><g id="j"><use transform="matrix(0.05,0,0,0.05,0,0)" xlink:href="#ab"/><use transform="matrix(0.05,0,0,0.05,10,0)" xlink:href="#V"/><use transform="matrix(0.05,0,0,0.05,20,0)" xlink:href="#ac"/><use transform="matrix(0.05,0,0,0.05,29,0)" xlink:href="#ac"/><use transform="matrix(0.05,0,0,0.05,38,0)" xlink:href="#ak"/><use transform="matrix(0.05,0,0,0.05,48,0)" xlink:href="#an"/><use transform="matrix(0.05,0,0,0.05,58,0)" xlink:href="#ao"/><use transform="matrix(0.05,0,0,0.05,68,0)" xlink:href="#ak"/><use transform="matrix(0.05,0,0,0.05,78,0)" xlink:href="#Z"/><use transform="matrix(0.05,0,0,0.05,83.95,0)" xlink:href="#Y"/><use transform="matrix(0.05,0,0,0.05,93.95,0)" xlink:href="#Z"/><use transform="matrix(0.05,0,0,0.05,99.9,0)" xlink:href="#V"/><use transform="matrix(0.05,0,0,0.05,109.9,0)" xlink:href="#X"/><use transform="matrix(0.05,0,0,0.05,114.9,0)" xlink:href="#aa"/><use transform="matrix(0.05,0,0,0.05,118.85000000000001,0)" xlink:href="#an"/><use transform="matrix(0.05,0,0,0.05,128.85000000000002,0)" xlink:href="#ao"/></g><g id="k"><use transform="matrix(0.05,0,0,0.05,0,0)" xlink:href="#ad"/><use transform="matrix(0.05,0,0,0.05,10,0)" xlink:href="#Z"/><use transform="matrix(0.05,0,0,0.05,15.949999999999998,0)" xlink:href="#aa"/><use transform="matrix(0.05,0,0,0.05,19.9,0)" xlink:href="#ap"/><use transform="matrix(0.05,0,0,0.05,28.899999999999995,0)" xlink:href="#ak"/><use transform="matrix(0.05,0,0,0.05,38.9,0)" xlink:href="#Z"/><use transform="matrix(0.05,0,0,0.05,44.85,0)" xlink:href="#Y"/><use transform="matrix(0.05,0,0,0.05,54.85,0)" xlink:href="#Z"/><use transform="matrix(0.05,0,0,0.05,60.800000000000004,0)" xlink:href="#V"/><use transform="matrix(0.05,0,0,0.05,70.80000000000001,0)" xlink:href="#X"/><use transform="matrix(0.05,0,0,0.05,75.80000000000001,0)" xlink:href="#aa"/><use transform="matrix(0.05,0,0,0.05,79.75000000000001,0)" xlink:href="#an"/><use transform="matrix(0.05,0,0,0.05,89.75000000000001,0)" xlink:href="#ao"/></g><g id="l"><use transform="matrix(0.05,0,0,0.05,0,0)" xlink:href="#U"/><use transform="matrix(0.05,0,0,0.05,5,0)" xlink:href="#V"/><use transform="matrix(0.05,0,0,0.05,15,0)" xlink:href="#W"/><use transform="matrix(0.05,0,0,0.05,24,0)" xlink:href="#X"/><use transform="matrix(0.05,0,0,0.05,29,0)" xlink:href="#Y"/><use transform="matrix(0.05,0,0,0.05,39,0)" xlink:href="#ab"/><use transform="matrix(0.05,0,0,0.05,49,0)" xlink:href="#V"/><use transform="matrix(0.05,0,0,0.05,59,0)" xlink:href="#ac"/><use transform="matrix(0.05,0,0,0.05,68,0)" xlink:href="#ac"/><use transform="matrix(0.05,0,0,0.05,77,0)" xlink:href="#ak"/><use transform="matrix(0.05,0,0,0.05,87,0)" xlink:href="#an"/><use transform="matrix(0.05,0,0,0.05,97,0)" xlink:href="#ao"/><use transform="matrix(0.05,0,0,0.05,107,0)" xlink:href="#ak"/><use transform="matrix(0.05,0,0,0.05,117,0)" xlink:href="#Z"/><use transform="matrix(0.05,0,0,0.05,122.95,0)" xlink:href="#Y"/><use transform="matrix(0.05,0,0,0.05,132.95,0)" xlink:href="#ac"/><use transform="matrix(0.05,0,0,0.05,141.95,0)" xlink:href="#au"/><use transform="matrix(0.05,0,0,0.05,151.95,0)" xlink:href="#as"/><use transform="matrix(0.05,0,0,0.05,166.89999999999998,0)" xlink:href="#as"/><use transform="matrix(0.05,0,0,0.05,181.84999999999997,0)" xlink:href="#V"/><use transform="matrix(0.05,0,0,0.05,191.84999999999997,0)" xlink:href="#Z"/><use transform="matrix(0.05,0,0,0.05,197.79999999999995,0)" xlink:href="#am"/></g><path fill="#3a414a" d="M106-169C34-169 62-67 57 0H25v-261h32l-1 103c12-21 28-36 61-36 89 0 53 116 60 194h-32v-121c2-32-8-49-39-48" id="av"/><g id="m"><use transform="matrix(0.05,0,0,0.05,0,0)" xlink:href="#as"/><use transform="matrix(0.05,0,0,0.05,14.950000000000001,0)" xlink:href="#at"/><use transform="matrix(0.05,0,0,0.05,24.950000000000003,0)" xlink:href="#an"/><use transform="matrix(0.05,0,0,0.05,34.95,0)" xlink:href="#X"/><use transform="matrix(0.05,0,0,0.05,39.95,0)" xlink:href="#av"/><use transform="matrix(0.05,0,0,0.05,49.95,0)" xlink:href="#Y"/><use transform="matrix(0.05,0,0,0.05,59.95,0)" xlink:href="#al"/><use transform="matrix(0.05,0,0,0.05,70.9,0)" xlink:href="#ag"/></g><path fill="#3a414a" d="M206 0h-36l-40-164L89 0H53L-1-190h32L70-26l43-164h34l41 164 42-164h31" id="aw"/><g id="n"><use transform="matrix(0.05,0,0,0.05,0,0)" xlink:href="#an"/><use transform="matrix(0.05,0,0,0.05,10,0)" xlink:href="#ak"/><use transform="matrix(0.05,0,0,0.05,20,0)" xlink:href="#aw"/><use transform="matrix(0.05,0,0,0.05,32.95,0)" xlink:href="#Y"/><use transform="matrix(0.05,0,0,0.05,42.95,0)" xlink:href="#ab"/><use transform="matrix(0.05,0,0,0.05,52.95,0)" xlink:href="#V"/><use transform="matrix(0.05,0,0,0.05,62.95,0)" xlink:href="#ac"/><use transform="matrix(0.05,0,0,0.05,71.95,0)" xlink:href="#ac"/><use transform="matrix(0.05,0,0,0.05,80.95,0)" xlink:href="#ak"/><use transform="matrix(0.05,0,0,0.05,90.95,0)" xlink:href="#an"/><use transform="matrix(0.05,0,0,0.05,100.95,0)" xlink:href="#ao"/><use transform="matrix(0.05,0,0,0.05,110.95,0)" xlink:href="#ak"/><use transform="matrix(0.05,0,0,0.05,120.95,0)" xlink:href="#Z"/><use transform="matrix(0.05,0,0,0.05,126.9,0)" xlink:href="#ac"/></g><g id="o"><use transform="matrix(0.05,0,0,0.05,0,0)" xlink:href="#Z"/><use transform="matrix(0.05,0,0,0.05,5.95,0)" xlink:href="#ak"/><use transform="matrix(0.05,0,0,0.05,15.949999999999998,0)" xlink:href="#ab"/><use transform="matrix(0.05,0,0,0.05,25.950000000000003,0)" xlink:href="#ak"/><use transform="matrix(0.05,0,0,0.05,35.95,0)" xlink:href="#V"/><use transform="matrix(0.05,0,0,0.05,45.95,0)" xlink:href="#X"/><use transform="matrix(0.05,0,0,0.05,50.95,0)" xlink:href="#Y"/><use transform="matrix(0.05,0,0,0.05,60.95,0)" xlink:href="#ab"/><use transform="matrix(0.05,0,0,0.05,70.95,0)" xlink:href="#V"/><use transform="matrix(0.05,0,0,0.05,80.95,0)" xlink:href="#ac"/><use transform="matrix(0.05,0,0,0.05,89.95,0)" xlink:href="#ac"/><use transform="matrix(0.05,0,0,0.05,98.95,0)" xlink:href="#ak"/><use transform="matrix(0.05,0,0,0.05,108.95,0)" xlink:href="#an"/><use transform="matrix(0.05,0,0,0.05,118.95,0)" xlink:href="#ao"/><use transform="matrix(0.05,0,0,0.05,128.95,0)" xlink:href="#ak"/><use transform="matrix(0.05,0,0,0.05,138.95,0)" xlink:href="#Z"/><use transform="matrix(0.05,0,0,0.05,144.89999999999998,0)" xlink:href="#ac"/></g><g id="p"><use transform="matrix(0.05,0,0,0.05,0,0)" xlink:href="#X"/><use transform="matrix(0.05,0,0,0.05,5,0)" xlink:href="#at"/><use transform="matrix(0.05,0,0,0.05,15,0)" xlink:href="#X"/><use transform="matrix(0.05,0,0,0.05,20,0)" xlink:href="#V"/><use transform="matrix(0.05,0,0,0.05,30,0)" xlink:href="#aq"/><use transform="matrix(0.05,0,0,0.05,33.95,0)" xlink:href="#Y"/><use transform="matrix(0.05,0,0,0.05,43.95,0)" xlink:href="#ab"/><use transform="matrix(0.05,0,0,0.05,53.95,0)" xlink:href="#V"/><use transform="matrix(0.05,0,0,0.05,63.95,0)" xlink:href="#ac"/><use transform="matrix(0.05,0,0,0.05,72.95,0)" xlink:href="#ac"/><use transform="matrix(0.05,0,0,0.05,81.95,0)" xlink:href="#ak"/><use transform="matrix(0.05,0,0,0.05,91.95,0)" xlink:href="#an"/><use transform="matrix(0.05,0,0,0.05,101.95,0)" xlink:href="#ao"/><use transform="matrix(0.05,0,0,0.05,111.95,0)" xlink:href="#ak"/><use transform="matrix(0.05,0,0,0.05,121.95,0)" xlink:href="#Z"/><use transform="matrix(0.05,0,0,0.05,127.9,0)" xlink:href="#ac"/></g><path fill="#3a414a" d="M115-194c53 0 69 39 70 98 0 66-23 100-70 100C84 3 66-7 56-30L54 0H23l1-261h32v101c10-23 28-34 59-34zm-8 174c40 0 45-34 45-75 0-40-5-75-45-74-42 0-51 32-51 76 0 43 10 73 51 73" id="ax"/><g id="q"><use transform="matrix(0.05,0,0,0.05,0,0)" xlink:href="#U"/><use transform="matrix(0.05,0,0,0.05,5,0)" xlink:href="#V"/><use transform="matrix(0.05,0,0,0.05,15,0)" xlink:href="#W"/><use transform="matrix(0.05,0,0,0.05,24,0)" xlink:href="#X"/><use transform="matrix(0.05,0,0,0.05,29,0)" xlink:href="#Y"/><use transform="matrix(0.05,0,0,0.05,39,0)" xlink:href="#Z"/><use transform="matrix(0.05,0,0,0.05,44.95,0)" xlink:href="#ak"/><use transform="matrix(0.05,0,0,0.05,54.95,0)" xlink:href="#ab"/><use transform="matrix(0.05,0,0,0.05,64.95,0)" xlink:href="#ak"/><use transform="matrix(0.05,0,0,0.05,74.95,0)" xlink:href="#V"/><use transform="matrix(0.05,0,0,0.05,84.95,0)" xlink:href="#X"/><use transform="matrix(0.05,0,0,0.05,89.95,0)" xlink:href="#Y"/><use transform="matrix(0.05,0,0,0.05,99.95,0)" xlink:href="#X"/><use transform="matrix(0.05,0,0,0.05,104.95,0)" xlink:href="#Z"/><use transform="matrix(0.05,0,0,0.05,110.9,0)" xlink:href="#aa"/><use transform="matrix(0.05,0,0,0.05,114.85000000000001,0)" xlink:href="#ab"/><use transform="matrix(0.05,0,0,0.05,124.85000000000001,0)" xlink:href="#Y"/><use transform="matrix(0.05,0,0,0.05,134.85000000000002,0)" xlink:href="#ad"/><use transform="matrix(0.05,0,0,0.05,144.85000000000002,0)" xlink:href="#aa"/><use transform="matrix(0.05,0,0,0.05,148.8,0)" xlink:href="#ac"/><use transform="matrix(0.05,0,0,0.05,157.8,0)" xlink:href="#X"/><use transform="matrix(0.05,0,0,0.05,162.8,0)" xlink:href="#Z"/><use transform="matrix(0.05,0,0,0.05,168.75,0)" xlink:href="#aa"/><use transform="matrix(0.05,0,0,0.05,172.7,0)" xlink:href="#ax"/><use transform="matrix(0.05,0,0,0.05,182.7,0)" xlink:href="#au"/><use transform="matrix(0.05,0,0,0.05,192.7,0)" xlink:href="#X"/><use transform="matrix(0.05,0,0,0.05,197.7,0)" xlink:href="#aa"/><use transform="matrix(0.05,0,0,0.05,201.64999999999998,0)" xlink:href="#at"/><use transform="matrix(0.05,0,0,0.05,211.64999999999998,0)" xlink:href="#an"/></g><g id="r"><use transform="matrix(0.05,0,0,0.05,0,0)" xlink:href="#W"/><use transform="matrix(0.05,0,0,0.05,9,0)" xlink:href="#aa"/><use transform="matrix(0.05,0,0,0.05,12.949999999999998,0)" xlink:href="#X"/><use transform="matrix(0.05,0,0,0.05,17.95,0)" xlink:href="#am"/><use transform="matrix(0.05,0,0,0.05,26.950000000000003,0)" xlink:href="#Y"/><use transform="matrix(0.05,0,0,0.05,36.95,0)" xlink:href="#aa"/><use transform="matrix(0.05,0,0,0.05,40.900000000000006,0)" xlink:href="#ad"/><use transform="matrix(0.05,0,0,0.05,50.900000000000006,0)" xlink:href="#Y"/><use transform="matrix(0.05,0,0,0.05,60.900000000000006,0)" xlink:href="#al"/><use transform="matrix(0.05,0,0,0.05,71.85000000000001,0)" xlink:href="#ag"/><use transform="matrix(0.05,0,0,0.05,83.85000000000001,0)" xlink:href="#ae"/><use transform="matrix(0.05,0,0,0.05,89.80000000000001,0)" xlink:href="#al"/><use transform="matrix(0.05,0,0,0.05,100.75000000000001,0)" xlink:href="#ag"/><use transform="matrix(0.05,0,0,0.05,112.75,0)" xlink:href="#aj"/></g><g id="s"><use transform="matrix(0.05,0,0,0.05,0,0)" xlink:href="#X"/><use transform="matrix(0.05,0,0,0.05,5,0)" xlink:href="#Z"/><use transform="matrix(0.05,0,0,0.05,10.95,0)" xlink:href="#aa"/><use transform="matrix(0.05,0,0,0.05,14.899999999999999,0)" xlink:href="#ab"/><use transform="matrix(0.05,0,0,0.05,24.9,0)" xlink:href="#Y"/><use transform="matrix(0.05,0,0,0.05,34.9,0)" xlink:href="#W"/><use transform="matrix(0.05,0,0,0.05,43.9,0)" xlink:href="#at"/><use transform="matrix(0.05,0,0,0.05,53.900000000000006,0)" xlink:href="#au"/><use transform="matrix(0.05,0,0,0.05,63.900000000000006,0)" xlink:href="#an"/><use transform="matrix(0.05,0,0,0.05,73.9,0)" xlink:href="#X"/></g><g id="t"><use transform="matrix(0.05,0,0,0.05,0,0)" xlink:href="#Z"/><use transform="matrix(0.05,0,0,0.05,5.95,0)" xlink:href="#ak"/><use transform="matrix(0.05,0,0,0.05,15.949999999999998,0)" xlink:href="#ab"/><use transform="matrix(0.05,0,0,0.05,25.950000000000003,0)" xlink:href="#ak"/><use transform="matrix(0.05,0,0,0.05,35.95,0)" xlink:href="#V"/><use transform="matrix(0.05,0,0,0.05,45.95,0)" xlink:href="#X"/><use transform="matrix(0.05,0,0,0.05,50.95,0)" xlink:href="#Y"/><use transform="matrix(0.05,0,0,0.05,60.95,0)" xlink:href="#ab"/><use transform="matrix(0.05,0,0,0.05,70.95,0)" xlink:href="#V"/><use transform="matrix(0.05,0,0,0.05,80.95,0)" xlink:href="#ac"/><use transform="matrix(0.05,0,0,0.05,89.95,0)" xlink:href="#ac"/><use transform="matrix(0.05,0,0,0.05,98.95,0)" xlink:href="#ak"/><use transform="matrix(0.05,0,0,0.05,108.95,0)" xlink:href="#an"/><use transform="matrix(0.05,0,0,0.05,118.95,0)" xlink:href="#ao"/><use transform="matrix(0.05,0,0,0.05,128.95,0)" xlink:href="#ak"/><use transform="matrix(0.05,0,0,0.05,138.95,0)" xlink:href="#Z"/><use transform="matrix(0.05,0,0,0.05,144.89999999999998,0)" xlink:href="#Y"/><use transform="matrix(0.05,0,0,0.05,154.89999999999998,0)" xlink:href="#W"/><use transform="matrix(0.05,0,0,0.05,163.89999999999998,0)" xlink:href="#at"/><use transform="matrix(0.05,0,0,0.05,173.89999999999998,0)" xlink:href="#au"/><use transform="matrix(0.05,0,0,0.05,183.89999999999998,0)" xlink:href="#an"/><use transform="matrix(0.05,0,0,0.05,193.89999999999998,0)" xlink:href="#X"/></g><g id="u"><use transform="matrix(0.05,0,0,0.05,0,0)" xlink:href="#U"/><use transform="matrix(0.05,0,0,0.05,5,0)" xlink:href="#V"/><use transform="matrix(0.05,0,0,0.05,15,0)" xlink:href="#W"/><use transform="matrix(0.05,0,0,0.05,24,0)" xlink:href="#X"/><use transform="matrix(0.05,0,0,0.05,29,0)" xlink:href="#Y"/><use transform="matrix(0.05,0,0,0.05,39,0)" xlink:href="#as"/><use transform="matrix(0.05,0,0,0.05,53.95,0)" xlink:href="#at"/><use transform="matrix(0.05,0,0,0.05,63.95,0)" xlink:href="#an"/><use transform="matrix(0.05,0,0,0.05,73.95,0)" xlink:href="#X"/><use transform="matrix(0.05,0,0,0.05,78.95,0)" xlink:href="#av"/><use transform="matrix(0.05,0,0,0.05,88.95,0)" xlink:href="#aq"/><use transform="matrix(0.05,0,0,0.05,92.9,0)" xlink:href="#am"/><use transform="matrix(0.05,0,0,0.05,101.9,0)" xlink:href="#Y"/><use transform="matrix(0.05,0,0,0.05,111.9,0)" xlink:href="#X"/><use transform="matrix(0.05,0,0,0.05,116.9,0)" xlink:href="#V"/><use transform="matrix(0.05,0,0,0.05,126.9,0)" xlink:href="#Z"/><use transform="matrix(0.05,0,0,0.05,132.85,0)" xlink:href="#ao"/><use transform="matrix(0.05,0,0,0.05,142.85,0)" xlink:href="#ak"/><use transform="matrix(0.05,0,0,0.05,152.85,0)" xlink:href="#X"/><use transform="matrix(0.05,0,0,0.05,157.85,0)" xlink:href="#Y"/><use transform="matrix(0.05,0,0,0.05,167.85,0)" xlink:href="#X"/><use transform="matrix(0.05,0,0,0.05,172.85,0)" xlink:href="#Z"/><use transform="matrix(0.05,0,0,0.05,178.79999999999998,0)" xlink:href="#aa"/><use transform="matrix(0.05,0,0,0.05,182.74999999999997,0)" xlink:href="#ab"/><use transform="matrix(0.05,0,0,0.05,192.74999999999997,0)" xlink:href="#ac"/></g><g id="v"><use transform="matrix(0.05,0,0,0.05,0,0)" xlink:href="#X"/><use transform="matrix(0.05,0,0,0.05,5,0)" xlink:href="#at"/><use transform="matrix(0.05,0,0,0.05,15,0)" xlink:href="#X"/><use transform="matrix(0.05,0,0,0.05,20,0)" xlink:href="#V"/><use transform="matrix(0.05,0,0,0.05,30,0)" xlink:href="#aq"/><use transform="matrix(0.05,0,0,0.05,33.95,0)" xlink:href="#Y"/><use transform="matrix(0.05,0,0,0.05,43.95,0)" xlink:href="#X"/><use transform="matrix(0.05,0,0,0.05,48.95,0)" xlink:href="#V"/><use transform="matrix(0.05,0,0,0.05,58.95,0)" xlink:href="#Z"/><use transform="matrix(0.05,0,0,0.05,64.9,0)" xlink:href="#ao"/><use transform="matrix(0.05,0,0,0.05,74.9,0)" xlink:href="#ak"/><use transform="matrix(0.05,0,0,0.05,84.9,0)" xlink:href="#X"/><use transform="matrix(0.05,0,0,0.05,89.9,0)" xlink:href="#Y"/><use transform="matrix(0.05,0,0,0.05,99.9,0)" xlink:href="#X"/><use transform="matrix(0.05,0,0,0.05,104.9,0)" xlink:href="#Z"/><use transform="matrix(0.05,0,0,0.05,110.85000000000001,0)" xlink:href="#aa"/><use transform="matrix(0.05,0,0,0.05,114.80000000000001,0)" xlink:href="#ab"/><use transform="matrix(0.05,0,0,0.05,124.80000000000001,0)" xlink:href="#ac"/></g><g id="w"><use transform="matrix(0.05,0,0,0.05,0,0)" xlink:href="#U"/><use transform="matrix(0.05,0,0,0.05,5,0)" xlink:href="#V"/><use transform="matrix(0.05,0,0,0.05,15,0)" xlink:href="#W"/><use transform="matrix(0.05,0,0,0.05,24,0)" xlink:href="#X"/><use transform="matrix(0.05,0,0,0.05,29,0)" xlink:href="#Y"/><use transform="matrix(0.05,0,0,0.05,39,0)" xlink:href="#as"/><use transform="matrix(0.05,0,0,0.05,53.95,0)" xlink:href="#at"/><use transform="matrix(0.05,0,0,0.05,63.95,0)" xlink:href="#an"/><use transform="matrix(0.05,0,0,0.05,73.95,0)" xlink:href="#X"/><use transform="matrix(0.05,0,0,0.05,78.95,0)" xlink:href="#av"/><use transform="matrix(0.05,0,0,0.05,88.95,0)" xlink:href="#aq"/><use transform="matrix(0.05,0,0,0.05,92.9,0)" xlink:href="#am"/><use transform="matrix(0.05,0,0,0.05,101.9,0)" xlink:href="#Y"/><use transform="matrix(0.05,0,0,0.05,111.9,0)" xlink:href="#X"/><use transform="matrix(0.05,0,0,0.05,116.9,0)" xlink:href="#V"/><use transform="matrix(0.05,0,0,0.05,126.9,0)" xlink:href="#Z"/><use transform="matrix(0.05,0,0,0.05,132.85,0)" xlink:href="#ao"/><use transform="matrix(0.05,0,0,0.05,142.85,0)" xlink:href="#ak"/><use transform="matrix(0.05,0,0,0.05,152.85,0)" xlink:href="#X"/><use transform="matrix(0.05,0,0,0.05,157.85,0)" xlink:href="#Y"/><use transform="matrix(0.05,0,0,0.05,167.85,0)" xlink:href="#an"/><use transform="matrix(0.05,0,0,0.05,177.85,0)" xlink:href="#ak"/><use transform="matrix(0.05,0,0,0.05,187.85,0)" xlink:href="#aw"/><use transform="matrix(0.05,0,0,0.05,200.79999999999998,0)" xlink:href="#Y"/><use transform="matrix(0.05,0,0,0.05,210.79999999999995,0)" xlink:href="#ab"/><use transform="matrix(0.05,0,0,0.05,220.79999999999995,0)" xlink:href="#V"/><use transform="matrix(0.05,0,0,0.05,230.79999999999995,0)" xlink:href="#ac"/><use transform="matrix(0.05,0,0,0.05,239.79999999999995,0)" xlink:href="#ac"/><use transform="matrix(0.05,0,0,0.05,248.79999999999995,0)" xlink:href="#ak"/><use transform="matrix(0.05,0,0,0.05,258.79999999999995,0)" xlink:href="#an"/><use transform="matrix(0.05,0,0,0.05,268.79999999999995,0)" xlink:href="#ao"/><use transform="matrix(0.05,0,0,0.05,278.79999999999995,0)" xlink:href="#ak"/><use transform="matrix(0.05,0,0,0.05,288.79999999999995,0)" xlink:href="#Z"/><use transform="matrix(0.05,0,0,0.05,294.74999999999994,0)" xlink:href="#ac"/></g><g id="x"><use transform="matrix(0.05,0,0,0.05,0,0)" xlink:href="#X"/><use transform="matrix(0.05,0,0,0.05,5,0)" xlink:href="#V"/><use transform="matrix(0.05,0,0,0.05,15,0)" xlink:href="#Z"/><use transform="matrix(0.05,0,0,0.05,20.95,0)" xlink:href="#ao"/><use transform="matrix(0.05,0,0,0.05,30.950000000000003,0)" xlink:href="#ak"/><use transform="matrix(0.05,0,0,0.05,40.95,0)" xlink:href="#X"/><use transform="matrix(0.05,0,0,0.05,45.95,0)" xlink:href="#Y"/><use transform="matrix(0.05,0,0,0.05,55.95,0)" xlink:href="#an"/><use transform="matrix(0.05,0,0,0.05,65.95,0)" xlink:href="#ak"/><use transform="matrix(0.05,0,0,0.05,75.95,0)" xlink:href="#aw"/><use transform="matrix(0.05,0,0,0.05,88.9,0)" xlink:href="#Y"/><use transform="matrix(0.05,0,0,0.05,98.9,0)" xlink:href="#ab"/><use transform="matrix(0.05,0,0,0.05,108.9,0)" xlink:href="#V"/><use transform="matrix(0.05,0,0,0.05,118.9,0)" xlink:href="#ac"/><use transform="matrix(0.05,0,0,0.05,127.9,0)" xlink:href="#ac"/><use transform="matrix(0.05,0,0,0.05,136.9,0)" xlink:href="#ak"/><use transform="matrix(0.05,0,0,0.05,146.9,0)" xlink:href="#an"/><use transform="matrix(0.05,0,0,0.05,156.9,0)" xlink:href="#ao"/><use transform="matrix(0.05,0,0,0.05,166.9,0)" xlink:href="#ak"/><use transform="matrix(0.05,0,0,0.05,176.9,0)" xlink:href="#Z"/><use transform="matrix(0.05,0,0,0.05,182.85,0)" xlink:href="#ac"/></g><g id="y"><use transform="matrix(0.05,0,0,0.05,0,0)" xlink:href="#ad"/><use transform="matrix(0.05,0,0,0.05,10,0)" xlink:href="#aa"/><use transform="matrix(0.05,0,0,0.05,13.949999999999998,0)" xlink:href="#as"/><use transform="matrix(0.05,0,0,0.05,28.899999999999995,0)" xlink:href="#Y"/><use transform="matrix(0.05,0,0,0.05,38.9,0)" xlink:href="#W"/><use transform="matrix(0.05,0,0,0.05,47.9,0)" xlink:href="#aa"/><use transform="matrix(0.05,0,0,0.05,51.85,0)" xlink:href="#X"/><use transform="matrix(0.05,0,0,0.05,56.85,0)" xlink:href="#am"/></g><g id="z"><use transform="matrix(0.05,0,0,0.05,0,0)" xlink:href="#W"/><use transform="matrix(0.05,0,0,0.05,9,0)" xlink:href="#aa"/><use transform="matrix(0.05,0,0,0.05,12.949999999999998,0)" xlink:href="#X"/><use transform="matrix(0.05,0,0,0.05,17.95,0)" xlink:href="#am"/><use transform="matrix(0.05,0,0,0.05,26.950000000000003,0)" xlink:href="#Y"/><use transform="matrix(0.05,0,0,0.05,36.95,0)" xlink:href="#aa"/><use transform="matrix(0.05,0,0,0.05,40.900000000000006,0)" xlink:href="#ad"/></g><g id="A"><use transform="matrix(0.05,0,0,0.05,0,0)" xlink:href="#ae"/><use transform="matrix(0.05,0,0,0.05,5.95,0)" xlink:href="#ai"/><use transform="matrix(0.05,0,0,0.05,17.95,0)" xlink:href="#ag"/><use transform="matrix(0.05,0,0,0.05,29.950000000000003,0)" xlink:href="#aj"/></g><g id="B"><use transform="matrix(0.05,0,0,0.05,0,0)" xlink:href="#W"/><use transform="matrix(0.05,0,0,0.05,9,0)" xlink:href="#aa"/><use transform="matrix(0.05,0,0,0.05,12.949999999999998,0)" xlink:href="#X"/><use transform="matrix(0.05,0,0,0.05,17.95,0)" xlink:href="#am"/><use transform="matrix(0.05,0,0,0.05,26.950000000000003,0)" xlink:href="#Y"/><use transform="matrix(0.05,0,0,0.05,36.95,0)" xlink:href="#an"/><use transform="matrix(0.05,0,0,0.05,46.95,0)" xlink:href="#V"/><use transform="matrix(0.05,0,0,0.05,56.95,0)" xlink:href="#as"/><use transform="matrix(0.05,0,0,0.05,71.9,0)" xlink:href="#ak"/></g><g id="C"><use transform="matrix(0.05,0,0,0.05,0,0)" xlink:href="#X"/><use transform="matrix(0.05,0,0,0.05,5,0)" xlink:href="#V"/><use transform="matrix(0.05,0,0,0.05,15,0)" xlink:href="#Z"/><use transform="matrix(0.05,0,0,0.05,20.95,0)" xlink:href="#ao"/><use transform="matrix(0.05,0,0,0.05,30.950000000000003,0)" xlink:href="#ak"/><use transform="matrix(0.05,0,0,0.05,40.95,0)" xlink:href="#X"/><use transform="matrix(0.05,0,0,0.05,45.95,0)" xlink:href="#Y"/><use transform="matrix(0.05,0,0,0.05,55.95,0)" xlink:href="#V"/><use transform="matrix(0.05,0,0,0.05,65.95,0)" xlink:href="#ap"/><use transform="matrix(0.05,0,0,0.05,74.95,0)" xlink:href="#ao"/><use transform="matrix(0.05,0,0,0.05,84.95,0)" xlink:href="#Y"/><use transform="matrix(0.05,0,0,0.05,94.95,0)" xlink:href="#ab"/><use transform="matrix(0.05,0,0,0.05,104.95,0)" xlink:href="#V"/><use transform="matrix(0.05,0,0,0.05,114.95,0)" xlink:href="#ac"/><use transform="matrix(0.05,0,0,0.05,123.95,0)" xlink:href="#ac"/><use transform="matrix(0.05,0,0,0.05,132.95,0)" xlink:href="#ak"/><use transform="matrix(0.05,0,0,0.05,142.95,0)" xlink:href="#an"/><use transform="matrix(0.05,0,0,0.05,152.95,0)" xlink:href="#ao"/><use transform="matrix(0.05,0,0,0.05,162.95,0)" xlink:href="#ak"/><use transform="matrix(0.05,0,0,0.05,172.95,0)" xlink:href="#Z"/><use transform="matrix(0.05,0,0,0.05,178.89999999999998,0)" xlink:href="#Y"/><use transform="matrix(0.05,0,0,0.05,188.89999999999998,0)" xlink:href="#Z"/><use transform="matrix(0.05,0,0,0.05,194.84999999999997,0)" xlink:href="#V"/><use transform="matrix(0.05,0,0,0.05,204.84999999999997,0)" xlink:href="#X"/><use transform="matrix(0.05,0,0,0.05,209.84999999999997,0)" xlink:href="#aa"/><use transform="matrix(0.05,0,0,0.05,213.79999999999995,0)" xlink:href="#an"/><use transform="matrix(0.05,0,0,0.05,223.79999999999995,0)" xlink:href="#ao"/></g><g id="D"><use transform="matrix(0.05,0,0,0.05,0,0)" xlink:href="#ad"/><use transform="matrix(0.05,0,0,0.05,10,0)" xlink:href="#aa"/><use transform="matrix(0.05,0,0,0.05,13.949999999999998,0)" xlink:href="#as"/><use transform="matrix(0.05,0,0,0.05,28.899999999999995,0)" xlink:href="#Y"/><use transform="matrix(0.05,0,0,0.05,38.9,0)" xlink:href="#ad"/><use transform="matrix(0.05,0,0,0.05,48.9,0)" xlink:href="#V"/><use transform="matrix(0.05,0,0,0.05,58.900000000000006,0)" xlink:href="#X"/><use transform="matrix(0.05,0,0,0.05,63.900000000000006,0)" xlink:href="#ak"/></g><path fill="#3a414a" d="M185-189c-5-48-123-54-124 2 14 75 158 14 163 119 3 78-121 87-175 55-17-10-28-26-33-46l33-7c5 56 141 63 141-1 0-78-155-14-162-118-5-82 145-84 179-34 5 7 8 16 11 25" id="ay"/><g id="E"><use transform="matrix(0.05,0,0,0.05,0,0)" xlink:href="#ad"/><use transform="matrix(0.05,0,0,0.05,10,0)" xlink:href="#V"/><use transform="matrix(0.05,0,0,0.05,20,0)" xlink:href="#X"/><use transform="matrix(0.05,0,0,0.05,25,0)" xlink:href="#ak"/><use transform="matrix(0.05,0,0,0.05,35,0)" xlink:href="#Y"/><use transform="matrix(0.05,0,0,0.05,45,0)" xlink:href="#ay"/><use transform="matrix(0.05,0,0,0.05,57,0)" xlink:href="#ag"/></g><g id="F"><use transform="matrix(0.05,0,0,0.05,0,0)" xlink:href="#ad"/><use transform="matrix(0.05,0,0,0.05,10,0)" xlink:href="#V"/><use transform="matrix(0.05,0,0,0.05,20,0)" xlink:href="#X"/><use transform="matrix(0.05,0,0,0.05,25,0)" xlink:href="#ak"/></g><g id="G"><use transform="matrix(0.05,0,0,0.05,0,0)" xlink:href="#aw"/><use transform="matrix(0.05,0,0,0.05,12.950000000000001,0)" xlink:href="#ak"/><use transform="matrix(0.05,0,0,0.05,22.950000000000003,0)" xlink:href="#ak"/><use transform="matrix(0.05,0,0,0.05,32.95,0)" xlink:href="#ar"/><use transform="matrix(0.05,0,0,0.05,41.95,0)" xlink:href="#Y"/><use transform="matrix(0.05,0,0,0.05,51.95,0)" xlink:href="#at"/><use transform="matrix(0.05,0,0,0.05,61.95,0)" xlink:href="#U"/><use transform="matrix(0.05,0,0,0.05,66.95,0)" xlink:href="#Y"/><use transform="matrix(0.05,0,0,0.05,76.95,0)" xlink:href="#am"/><use transform="matrix(0.05,0,0,0.05,85.95,0)" xlink:href="#ak"/><use transform="matrix(0.05,0,0,0.05,95.95,0)" xlink:href="#V"/><use transform="matrix(0.05,0,0,0.05,105.95,0)" xlink:href="#Z"/></g><g id="H"><use transform="matrix(0.05,0,0,0.05,0,0)" xlink:href="#aw"/><use transform="matrix(0.05,0,0,0.05,12.950000000000001,0)" xlink:href="#ak"/><use transform="matrix(0.05,0,0,0.05,22.950000000000003,0)" xlink:href="#ak"/><use transform="matrix(0.05,0,0,0.05,32.95,0)" xlink:href="#ar"/><use transform="matrix(0.05,0,0,0.05,41.95,0)" xlink:href="#Y"/><use transform="matrix(0.05,0,0,0.05,51.95,0)" xlink:href="#at"/><use transform="matrix(0.05,0,0,0.05,61.95,0)" xlink:href="#U"/><use transform="matrix(0.05,0,0,0.05,66.95,0)" xlink:href="#Y"/><use transform="matrix(0.05,0,0,0.05,76.95,0)" xlink:href="#as"/><use transform="matrix(0.05,0,0,0.05,91.9,0)" xlink:href="#at"/><use transform="matrix(0.05,0,0,0.05,101.9,0)" xlink:href="#an"/><use transform="matrix(0.05,0,0,0.05,111.9,0)" xlink:href="#X"/><use transform="matrix(0.05,0,0,0.05,116.9,0)" xlink:href="#av"/></g><g id="I"><use transform="matrix(0.05,0,0,0.05,0,0)" xlink:href="#ad"/><use transform="matrix(0.05,0,0,0.05,10,0)" xlink:href="#V"/><use transform="matrix(0.05,0,0,0.05,20,0)" xlink:href="#am"/></g><g id="J"><use transform="matrix(0.05,0,0,0.05,0,0)" xlink:href="#ad"/><use transform="matrix(0.05,0,0,0.05,10,0)" xlink:href="#V"/><use transform="matrix(0.05,0,0,0.05,20,0)" xlink:href="#am"/><use transform="matrix(0.05,0,0,0.05,29,0)" xlink:href="#Y"/><use transform="matrix(0.05,0,0,0.05,39,0)" xlink:href="#at"/><use transform="matrix(0.05,0,0,0.05,49,0)" xlink:href="#U"/><use transform="matrix(0.05,0,0,0.05,54,0)" xlink:href="#Y"/><use transform="matrix(0.05,0,0,0.05,64,0)" xlink:href="#aw"/><use transform="matrix(0.05,0,0,0.05,76.95,0)" xlink:href="#ak"/><use transform="matrix(0.05,0,0,0.05,86.95,0)" xlink:href="#ak"/><use transform="matrix(0.05,0,0,0.05,96.95,0)" xlink:href="#ar"/></g><g id="K"><use transform="matrix(0.05,0,0,0.05,0,0)" xlink:href="#ad"/><use transform="matrix(0.05,0,0,0.05,10,0)" xlink:href="#V"/><use transform="matrix(0.05,0,0,0.05,20,0)" xlink:href="#am"/><use transform="matrix(0.05,0,0,0.05,29,0)" xlink:href="#Y"/><use transform="matrix(0.05,0,0,0.05,39,0)" xlink:href="#an"/><use transform="matrix(0.05,0,0,0.05,49,0)" xlink:href="#V"/><use transform="matrix(0.05,0,0,0.05,59,0)" xlink:href="#as"/><use transform="matrix(0.05,0,0,0.05,73.95,0)" xlink:href="#ak"/></g><g id="L"><use transform="matrix(0.05,0,0,0.05,0,0)" xlink:href="#ad"/><use transform="matrix(0.05,0,0,0.05,10,0)" xlink:href="#V"/><use transform="matrix(0.05,0,0,0.05,20,0)" xlink:href="#am"/><use transform="matrix(0.05,0,0,0.05,29,0)" xlink:href="#Y"/><use transform="matrix(0.05,0,0,0.05,39,0)" xlink:href="#X"/><use transform="matrix(0.05,0,0,0.05,44,0)" xlink:href="#am"/><use transform="matrix(0.05,0,0,0.05,53,0)" xlink:href="#ab"/><use transform="matrix(0.05,0,0,0.05,63,0)" xlink:href="#ak"/></g><g id="M"><use transform="matrix(0.05,0,0,0.05,0,0)" xlink:href="#ad"/><use transform="matrix(0.05,0,0,0.05,10,0)" xlink:href="#aa"/><use transform="matrix(0.05,0,0,0.05,13.949999999999998,0)" xlink:href="#as"/><use transform="matrix(0.05,0,0,0.05,28.899999999999995,0)" xlink:href="#Y"/><use transform="matrix(0.05,0,0,0.05,38.9,0)" xlink:href="#as"/><use transform="matrix(0.05,0,0,0.05,53.85,0)" xlink:href="#at"/><use transform="matrix(0.05,0,0,0.05,63.85,0)" xlink:href="#an"/><use transform="matrix(0.05,0,0,0.05,73.85,0)" xlink:href="#X"/><use transform="matrix(0.05,0,0,0.05,78.85,0)" xlink:href="#av"/></g><g id="N"><use transform="matrix(0.05,0,0,0.05,0,0)" xlink:href="#as"/><use transform="matrix(0.05,0,0,0.05,14.950000000000001,0)" xlink:href="#at"/><use transform="matrix(0.05,0,0,0.05,24.950000000000003,0)" xlink:href="#an"/><use transform="matrix(0.05,0,0,0.05,34.95,0)" xlink:href="#X"/><use transform="matrix(0.05,0,0,0.05,39.95,0)" xlink:href="#av"/><use transform="matrix(0.05,0,0,0.05,49.95,0)" xlink:href="#Y"/><use transform="matrix(0.05,0,0,0.05,59.95,0)" xlink:href="#ay"/><use transform="matrix(0.05,0,0,0.05,71.95,0)" xlink:href="#ag"/></g><g id="O"><use transform="matrix(0.05,0,0,0.05,0,0)" xlink:href="#as"/><use transform="matrix(0.05,0,0,0.05,14.950000000000001,0)" xlink:href="#at"/><use transform="matrix(0.05,0,0,0.05,24.950000000000003,0)" xlink:href="#an"/><use transform="matrix(0.05,0,0,0.05,34.95,0)" xlink:href="#X"/><use transform="matrix(0.05,0,0,0.05,39.95,0)" xlink:href="#av"/></g><g id="P"><use transform="matrix(0.05,0,0,0.05,0,0)" xlink:href="#as"/><use transform="matrix(0.05,0,0,0.05,14.950000000000001,0)" xlink:href="#at"/><use transform="matrix(0.05,0,0,0.05,24.950000000000003,0)" xlink:href="#an"/><use transform="matrix(0.05,0,0,0.05,34.95,0)" xlink:href="#X"/><use transform="matrix(0.05,0,0,0.05,39.95,0)" xlink:href="#av"/><use transform="matrix(0.05,0,0,0.05,49.95,0)" xlink:href="#Y"/><use transform="matrix(0.05,0,0,0.05,59.95,0)" xlink:href="#an"/><use transform="matrix(0.05,0,0,0.05,69.95,0)" xlink:href="#at"/></g><g id="Q"><use transform="matrix(0.05,0,0,0.05,0,0)" xlink:href="#as"/><use transform="matrix(0.05,0,0,0.05,14.950000000000001,0)" xlink:href="#at"/><use transform="matrix(0.05,0,0,0.05,24.950000000000003,0)" xlink:href="#an"/><use transform="matrix(0.05,0,0,0.05,34.95,0)" xlink:href="#X"/><use transform="matrix(0.05,0,0,0.05,39.95,0)" xlink:href="#av"/><use transform="matrix(0.05,0,0,0.05,49.95,0)" xlink:href="#Y"/><use transform="matrix(0.05,0,0,0.05,59.95,0)" xlink:href="#an"/><use transform="matrix(0.05,0,0,0.05,69.95,0)" xlink:href="#V"/><use transform="matrix(0.05,0,0,0.05,79.95,0)" xlink:href="#as"/><use transform="matrix(0.05,0,0,0.05,94.9,0)" xlink:href="#ak"/></g><g id="R"><use transform="matrix(0.05,0,0,0.05,0,0)" xlink:href="#as"/><use transform="matrix(0.05,0,0,0.05,14.950000000000001,0)" xlink:href="#at"/><use transform="matrix(0.05,0,0,0.05,24.950000000000003,0)" xlink:href="#an"/><use transform="matrix(0.05,0,0,0.05,34.95,0)" xlink:href="#X"/><use transform="matrix(0.05,0,0,0.05,39.95,0)" xlink:href="#av"/><use transform="matrix(0.05,0,0,0.05,49.95,0)" xlink:href="#Y"/><use transform="matrix(0.05,0,0,0.05,59.95,0)" xlink:href="#an"/><use transform="matrix(0.05,0,0,0.05,69.95,0)" xlink:href="#V"/><use transform="matrix(0.05,0,0,0.05,79.95,0)" xlink:href="#as"/><use transform="matrix(0.05,0,0,0.05,94.9,0)" xlink:href="#ak"/><use transform="matrix(0.05,0,0,0.05,104.9,0)" xlink:href="#Y"/><use transform="matrix(0.05,0,0,0.05,114.9,0)" xlink:href="#ac"/><use transform="matrix(0.05,0,0,0.05,123.9,0)" xlink:href="#av"/><use transform="matrix(0.05,0,0,0.05,133.9,0)" xlink:href="#at"/><use transform="matrix(0.05,0,0,0.05,143.9,0)" xlink:href="#Z"/><use transform="matrix(0.05,0,0,0.05,149.85,0)" xlink:href="#X"/></g><path fill="#3a414a" d="M145-31C134-9 116 4 85 4 32 4 16-35 15-94c0-59 17-99 70-100 32-1 48 14 60 33 0-11-1-24 2-32h30l-1 268h-32zM93-21c41 0 51-33 51-76s-8-73-50-73c-40 0-46 35-46 75s5 74 45 74" id="az"/><g id="S"><use transform="matrix(0.05,0,0,0.05,0,0)" xlink:href="#az"/><use transform="matrix(0.05,0,0,0.05,10,0)" xlink:href="#au"/><use transform="matrix(0.05,0,0,0.05,20,0)" xlink:href="#V"/><use transform="matrix(0.05,0,0,0.05,30,0)" xlink:href="#Z"/><use transform="matrix(0.05,0,0,0.05,35.95,0)" xlink:href="#X"/><use transform="matrix(0.05,0,0,0.05,40.95,0)" xlink:href="#ak"/><use transform="matrix(0.05,0,0,0.05,50.95,0)" xlink:href="#Z"/></g><g id="T"><use transform="matrix(0.05,0,0,0.05,0,0)" xlink:href="#ac"/><use transform="matrix(0.05,0,0,0.05,9,0)" xlink:href="#X"/><use transform="matrix(0.05,0,0,0.05,14,0)" xlink:href="#V"/><use transform="matrix(0.05,0,0,0.05,24,0)" xlink:href="#Z"/><use transform="matrix(0.05,0,0,0.05,29.950000000000003,0)" xlink:href="#X"/><use transform="matrix(0.05,0,0,0.05,34.95,0)" xlink:href="#Y"/><use transform="matrix(0.05,0,0,0.05,44.95,0)" xlink:href="#at"/><use transform="matrix(0.05,0,0,0.05,54.95,0)" xlink:href="#U"/><use transform="matrix(0.05,0,0,0.05,59.95,0)" xlink:href="#Y"/><use transform="matrix(0.05,0,0,0.05,69.95,0)" xlink:href="#az"/><use transform="matrix(0.05,0,0,0.05,79.95,0)" xlink:href="#au"/><use transform="matrix(0.05,0,0,0.05,89.95,0)" xlink:href="#V"/><use transform="matrix(0.05,0,0,0.05,99.95,0)" xlink:href="#Z"/><use transform="matrix(0.05,0,0,0.05,105.9,0)" xlink:href="#X"/><use transform="matrix(0.05,0,0,0.05,110.9,0)" xlink:href="#ak"/><use transform="matrix(0.05,0,0,0.05,120.9,0)" xlink:href="#Z"/></g></defs></g></svg>